<?xml version="1.0" encoding="utf-8"?>
<!-- Generator: Adobe Illustrator 21.1.0, SVG Export Plug-In . SVG Version: 6.00 Build 0)  -->
<svg version="1.1" id="Layer_1" xmlns="http://www.w3.org/2000/svg" xmlns:xlink="http://www.w3.org/1999/xlink" x="0px" y="0px"
	 viewBox="0 0 370 185.3" style="enable-background:new 0 0 370 185.3;" xml:space="preserve">
<style type="text/css">
	.st0{fill:#757576;}
	.st1{fill:#F1592B;}
	.st2{fill:#6F6E6E;}
</style>
<path id="alive-copy-3" class="st0" d="M80.4,50.1v72.2H58.8v-7.4c-5.3,5.9-12.4,8.8-21.5,8.8c-6.4,0-12.3-1.7-17.7-5
	c-5.4-3.3-9.6-7.9-12.8-13.6C3.7,99.3,2.1,93,2.1,86.2c0-6.8,1.6-13.1,4.7-18.9C10,61.5,14.3,57,19.6,53.6c5.4-3.3,11.2-5,17.7-5
	c9.1,0,16.3,2.9,21.5,8.8v-7.4H80.4z M54.6,99c3.5-3.5,5.2-7.8,5.2-12.8c0-5.1-1.7-9.4-5.2-12.9c-3.5-3.5-7.8-5.3-12.9-5.3
	c-5,0-9.2,1.8-12.7,5.3c-3.5,3.5-5.2,7.8-5.2,12.9c0,5,1.7,9.3,5.2,12.8s7.7,5.3,12.7,5.3C46.8,104.2,51.1,102.5,54.6,99z M90.7,6.8
	h21.7v115.5H90.7V6.8z M125.1,34.2c-2.4-2.4-3.6-5.2-3.6-8.5c0-3.4,1.2-6.2,3.6-8.6c2.4-2.4,5.2-3.5,8.5-3.5c3.4,0,6.2,1.2,8.6,3.5
	c2.4,2.4,3.6,5.2,3.6,8.6c0,3.3-1.2,6.1-3.7,8.5c-2.4,2.4-5.3,3.6-8.5,3.6C130.3,37.8,127.5,36.6,125.1,34.2z M122.8,50.1h21.5v72.2
	h-21.5V50.1z M228.7,50.1l-29,72.2h-20.4l-28.7-72.2h23.1l15.8,48.8l15.9-48.8H228.7z M300.5,90.4h-52.8c0.7,4.9,2.6,8.8,5.7,11.6
	c3.1,2.8,6.9,4.3,11.3,4.3c3.6,0,6.9-0.8,9.7-2.5c2.8-1.6,5-4,6.5-7.1l17.5,7.2c-2.7,6.1-7,10.9-13,14.4c-6,3.6-12.7,5.3-20,5.3
	c-8.5,0-15.7-1.6-21.7-4.9c-5.9-3.3-10.4-7.7-13.4-13.4c-3-5.7-4.5-12.1-4.5-19.2c0-7,1.6-13.4,4.8-19.1c3.2-5.7,7.8-10.2,13.6-13.6
	c5.9-3.3,12.7-5,20.3-5c7.1,0,13.4,1.5,18.8,4.5c5.5,3,9.7,7.3,12.9,12.9s4.7,12.1,4.7,19.5L300.5,90.4z M249,76.2h29.4
	c-2.4-7.1-7.2-10.7-14.5-10.7S251.7,69.1,249,76.2z"/>
<path id="_x35_-copy-3" class="st1" d="M345.9,27.4c3.2,1.9,5.8,4.7,7.7,8.4c1.9,3.6,2.8,7.9,2.8,12.7c0,5.2-1.2,9.9-3.5,13.9
	s-5.4,7.1-9.4,9.3c-4,2.2-8.4,3.3-13.2,3.3c-4.5,0-8.8-0.9-12.7-2.7c-3.9-1.8-7.1-4.4-9.5-7.7c-2.4-3.4-3.7-7.2-3.8-11.6l15.2-0.2
	c0.5,2.7,1.8,4.7,3.9,6.2c2.1,1.4,4.6,2.2,7.4,2.2c3.1,0,5.7-1.1,7.8-3.4c2.1-2.2,3.1-5.2,3.1-9c0-3.6-1.1-6.6-3.2-8.8
	c-2.1-2.2-4.7-3.3-7.7-3.3c-2.1,0-4.2,0.6-6.2,1.8c-2,1.2-3.6,2.8-4.8,4.9l-14.8-0.1L312.4,2h41.5v12.8h-31.1l-2.2,13.9
	c1.7-1.3,3.7-2.3,6.2-3.1s5.3-1.2,8.4-1.2C339.1,24.4,342.7,25.4,345.9,27.4z"/>
<g>
	<path class="st2" d="M361.2,2.9h-1.6v5h-1.3v-5h-1.6V1.7h4.4V2.9z"/>
	<path class="st2" d="M368.7,1.7v6.2h-1.3V3.8l-2.1,3.7l-2.1-3.7v4.2H362V1.7h1.4l2,3.4l2-3.4H368.7z"/>
</g>
<g>
	<path class="st0" d="M5.5,172.3c-1.9-1.2-3.2-2.8-4.1-4.8l3.3-2c0.6,1.5,1.5,2.7,2.8,3.6c1.3,0.9,2.8,1.3,4.5,1.3
		c1.8,0,3.3-0.5,4.5-1.4c1.2-0.9,1.8-2.2,1.8-3.8c0-1.1-0.3-2.1-0.9-2.9c-0.6-0.8-1.4-1.4-2.3-1.9c-0.9-0.5-2.2-1.1-3.7-1.7
		c-1.9-0.8-3.3-1.5-4.5-2.1c-1.1-0.7-2.1-1.5-2.9-2.7c-0.8-1.1-1.2-2.5-1.2-4.3s0.4-3.2,1.2-4.5c0.8-1.3,1.9-2.3,3.2-3
		c1.4-0.7,2.9-1,4.6-1c1.8,0,3.4,0.4,4.9,1.1c1.5,0.8,2.7,1.7,3.7,2.9l-2.8,2.4c-0.6-0.9-1.4-1.6-2.4-2.1c-1-0.5-2.1-0.7-3.3-0.7
		c-1.6,0-2.9,0.4-3.9,1.2c-1,0.8-1.5,1.9-1.5,3.4c0,1.1,0.3,2,0.9,2.7c0.6,0.7,1.3,1.3,2.2,1.8c0.9,0.5,2.1,1,3.6,1.7
		c1.9,0.8,3.4,1.5,4.6,2.2s2.2,1.6,3,2.8c0.8,1.2,1.2,2.7,1.2,4.6c0,1.8-0.4,3.4-1.3,4.8c-0.9,1.4-2.1,2.4-3.5,3.1
		c-1.5,0.7-3.2,1.1-5,1.1C9.5,174.1,7.4,173.5,5.5,172.3z"/>
	<path class="st0" d="M59.2,141.6v32h-3.6V148l-12.5,21.4l-12.3-21.3v25.6h-3.6v-32H31l12.2,20.8l12.2-20.8H59.2z"/>
	<path class="st0" d="M68.6,172.3c-1.9-1.2-3.2-2.8-4.1-4.8l3.3-2c0.6,1.5,1.5,2.7,2.8,3.6c1.3,0.9,2.8,1.3,4.5,1.3
		c1.8,0,3.3-0.5,4.5-1.4c1.2-0.9,1.8-2.2,1.8-3.8c0-1.1-0.3-2.1-0.9-2.9c-0.6-0.8-1.4-1.4-2.3-1.9c-0.9-0.5-2.2-1.1-3.7-1.7
		c-1.9-0.8-3.3-1.5-4.5-2.1c-1.1-0.7-2.1-1.5-2.9-2.7c-0.8-1.1-1.2-2.5-1.2-4.3s0.4-3.2,1.2-4.5c0.8-1.3,1.9-2.3,3.2-3
		c1.4-0.7,2.9-1,4.6-1c1.8,0,3.4,0.4,4.9,1.1c1.5,0.8,2.7,1.7,3.7,2.9l-2.8,2.4c-0.6-0.9-1.4-1.6-2.4-2.1c-1-0.5-2.1-0.7-3.3-0.7
		c-1.6,0-2.9,0.4-3.9,1.2c-1,0.8-1.5,1.9-1.5,3.4c0,1.1,0.3,2,0.9,2.7c0.6,0.7,1.3,1.3,2.2,1.8c0.9,0.5,2.1,1,3.6,1.7
		c1.9,0.8,3.4,1.5,4.6,2.2s2.2,1.6,3,2.8c0.8,1.2,1.2,2.7,1.2,4.6c0,1.8-0.4,3.4-1.3,4.8c-0.9,1.4-2.1,2.4-3.5,3.1
		c-1.5,0.7-3.2,1.1-5,1.1C72.6,174.1,70.4,173.5,68.6,172.3z"/>
	<path class="st0" d="M134.1,141.6v32h-3.6V148l-12.5,21.4l-12.3-21.3v25.6h-3.6v-32h3.8l12.2,20.8l12.2-20.8H134.1z"/>
	<path class="st0" d="M162.6,152.3v21.4h-3.5v-3.1c-0.9,1.1-2.1,2-3.5,2.6c-1.4,0.6-2.9,0.9-4.6,0.9c-1.9,0-3.6-0.5-5.3-1.5
		c-1.6-1-2.9-2.4-3.9-4.1s-1.5-3.6-1.5-5.6s0.5-3.8,1.5-5.6s2.3-3.1,3.9-4.1c1.6-1,3.4-1.5,5.3-1.5c1.7,0,3.2,0.3,4.6,0.9
		c1.4,0.6,2.5,1.5,3.5,2.6v-3.1H162.6z M155.3,169.6c1.2-0.7,2.1-1.6,2.8-2.8c0.7-1.2,1-2.4,1-3.8s-0.3-2.7-1-3.8
		c-0.7-1.2-1.6-2.1-2.8-2.8s-2.4-1-3.8-1c-1.4,0-2.6,0.3-3.8,1s-2.1,1.6-2.8,2.8c-0.7,1.2-1,2.4-1,3.8s0.3,2.7,1,3.8
		s1.6,2.1,2.8,2.8s2.4,1,3.8,1C152.8,170.6,154.1,170.2,155.3,169.6z"/>
	<path class="st0" d="M190.8,139.5v34.2h-3.5v-2.8c-0.9,1-2.1,1.8-3.4,2.4s-2.8,0.9-4.4,0.9c-1.9,0-3.6-0.5-5.3-1.5
		c-1.6-1-2.9-2.4-3.9-4.1s-1.5-3.6-1.5-5.6s0.5-3.8,1.5-5.6s2.3-3.1,3.9-4.1c1.6-1,3.4-1.5,5.3-1.5c1.6,0,3.1,0.3,4.4,0.9
		c1.3,0.6,2.5,1.4,3.4,2.4v-15.6H190.8z M183.7,169.6c1.2-0.7,2.1-1.6,2.8-2.8s1-2.4,1-3.8s-0.3-2.7-1-3.8c-0.7-1.2-1.6-2.1-2.8-2.8
		s-2.4-1-3.8-1c-1.4,0-2.6,0.3-3.8,1c-1.2,0.7-2.1,1.6-2.8,2.8c-0.7,1.2-1,2.4-1,3.8s0.3,2.7,1,3.8s1.6,2.1,2.8,2.8
		c1.2,0.7,2.4,1,3.8,1C181.3,170.6,182.5,170.2,183.7,169.6z"/>
	<path class="st0" d="M219.1,163.5h-18.7c0.1,1.3,0.5,2.5,1.2,3.6c0.7,1.1,1.6,1.9,2.8,2.5c1.1,0.6,2.4,0.9,3.7,0.9
		c1.3,0,2.6-0.3,3.7-1c1.1-0.7,2.1-1.5,2.7-2.6l3.2,1.3c-0.9,1.8-2.3,3.2-4,4.3c-1.7,1.1-3.6,1.6-5.7,1.6c-2,0-3.9-0.5-5.6-1.5
		c-1.7-1-3-2.3-4-4c-1-1.7-1.5-3.6-1.5-5.6s0.5-3.9,1.5-5.6c1-1.7,2.3-3,4-4c1.7-1,3.6-1.5,5.6-1.5c2,0,3.8,0.5,5.5,1.5
		c1.7,1,3,2.3,4,4c1,1.7,1.5,3.5,1.5,5.5L219.1,163.5z M203.7,156.7c-1.3,0.9-2.2,2.1-2.8,3.6h14.2c-0.5-1.5-1.4-2.7-2.7-3.6
		c-1.3-0.9-2.7-1.4-4.3-1.4C206.4,155.4,205,155.8,203.7,156.7z"/>
	<path class="st0" d="M239,172.3c-1.9-1.2-3.2-2.8-4.1-4.8l3.3-2c0.6,1.5,1.5,2.7,2.8,3.6s2.8,1.3,4.5,1.3c1.8,0,3.3-0.5,4.5-1.4
		c1.2-0.9,1.8-2.2,1.8-3.8c0-1.1-0.3-2.1-0.9-2.9c-0.6-0.8-1.4-1.4-2.3-1.9c-0.9-0.5-2.2-1.1-3.7-1.7c-1.9-0.8-3.3-1.5-4.5-2.1
		c-1.1-0.7-2.1-1.5-2.9-2.7c-0.8-1.1-1.2-2.5-1.2-4.3s0.4-3.2,1.2-4.5c0.8-1.3,1.9-2.3,3.2-3s2.9-1,4.6-1c1.8,0,3.4,0.4,4.9,1.1
		c1.5,0.8,2.7,1.7,3.7,2.9l-2.8,2.4c-0.6-0.9-1.4-1.6-2.4-2.1c-1-0.5-2.1-0.7-3.3-0.7c-1.6,0-2.9,0.4-3.9,1.2
		c-1,0.8-1.5,1.9-1.5,3.4c0,1.1,0.3,2,0.9,2.7c0.6,0.7,1.3,1.3,2.2,1.8c0.9,0.5,2.1,1,3.6,1.7c1.9,0.8,3.4,1.5,4.6,2.2
		s2.2,1.6,3,2.8s1.2,2.7,1.2,4.6c0,1.8-0.4,3.4-1.3,4.8c-0.9,1.4-2.1,2.4-3.5,3.1c-1.5,0.7-3.2,1.1-5,1.1
		C243.1,174.1,240.9,173.5,239,172.3z"/>
	<path class="st0" d="M260.7,147.6c-0.5-0.5-0.7-1-0.7-1.6c0-0.7,0.2-1.3,0.7-1.7c0.5-0.5,1-0.7,1.7-0.7s1.2,0.2,1.7,0.7
		c0.5,0.5,0.7,1,0.7,1.7c0,0.6-0.2,1.2-0.7,1.6c-0.5,0.5-1,0.7-1.7,0.7S261.2,148.1,260.7,147.6z M260.6,152.3h3.5v21.4h-3.5V152.3z
		"/>
	<path class="st0" d="M296.3,153c1.2,0.7,2.2,1.7,2.9,3c0.7,1.3,1.1,2.6,1.1,4.1v13.6h-3.5v-13.6c0-1.3-0.4-2.4-1.3-3.3
		c-0.9-0.9-1.9-1.4-3.2-1.4c-1.3,0-2.3,0.5-3.2,1.4c-0.9,0.9-1.3,2-1.3,3.3v13.6h-3.5v-13.6c0-1.3-0.4-2.4-1.3-3.3
		c-0.9-0.9-1.9-1.4-3.2-1.4c-1.3,0-2.3,0.5-3.2,1.4s-1.3,2-1.3,3.3v13.6h-3.5v-21.4h3.5v1.9c0.7-0.7,1.4-1.3,2.2-1.7
		c0.8-0.4,1.7-0.6,2.6-0.6c1.1,0,2.1,0.3,3.2,0.8c1,0.6,1.9,1.3,2.7,2.3c0.7-1,1.7-1.7,2.8-2.3c1.1-0.6,2.3-0.8,3.5-0.8
		C293.7,151.9,295.1,152.2,296.3,153z"/>
	<path class="st0" d="M324.1,153.4c1.6,1,2.9,2.4,3.9,4.1c1,1.7,1.5,3.6,1.5,5.6s-0.5,3.8-1.5,5.6c-1,1.7-2.3,3.1-3.9,4.1
		c-1.6,1-3.4,1.5-5.3,1.5c-1.6,0-3.1-0.3-4.4-0.9c-1.3-0.6-2.5-1.4-3.4-2.4v13.5h-3.5v-32h3.5v2.8c0.9-1,2.1-1.8,3.4-2.4
		c1.3-0.6,2.8-0.9,4.4-0.9C320.7,151.9,322.5,152.4,324.1,153.4z M322.2,169.6c1.2-0.7,2.1-1.6,2.8-2.8s1-2.4,1-3.8s-0.3-2.7-1-3.8
		c-0.7-1.2-1.6-2.1-2.8-2.8c-1.2-0.7-2.4-1-3.8-1c-1.4,0-2.7,0.3-3.8,1c-1.2,0.7-2.1,1.6-2.8,2.8c-0.7,1.2-1,2.4-1,3.8
		s0.3,2.7,1,3.8s1.6,2.1,2.8,2.8c1.2,0.7,2.4,1,3.8,1C319.8,170.6,321.1,170.2,322.2,169.6z"/>
	<path class="st0" d="M335.7,139.5h3.5v34.2h-3.5V139.5z"/>
	<path class="st0" d="M367.6,163.5h-18.7c0.1,1.3,0.5,2.5,1.2,3.6c0.7,1.1,1.6,1.9,2.8,2.5c1.1,0.6,2.4,0.9,3.7,0.9
		c1.3,0,2.6-0.3,3.7-1c1.1-0.7,2.1-1.5,2.7-2.6l3.2,1.3c-0.9,1.8-2.3,3.2-4,4.3c-1.7,1.1-3.6,1.6-5.7,1.6c-2,0-3.9-0.5-5.6-1.5
		c-1.7-1-3-2.3-4-4c-1-1.7-1.5-3.6-1.5-5.6s0.5-3.9,1.5-5.6c1-1.7,2.3-3,4-4c1.7-1,3.6-1.5,5.6-1.5c2,0,3.8,0.5,5.5,1.5
		c1.7,1,3,2.3,4,4c1,1.7,1.5,3.5,1.5,5.5L367.6,163.5z M352.2,156.7c-1.3,0.9-2.2,2.1-2.8,3.6h14.2c-0.5-1.5-1.4-2.7-2.7-3.6
		c-1.3-0.9-2.7-1.4-4.3-1.4C354.9,155.4,353.5,155.8,352.2,156.7z"/>
</g>
</svg>
